.
 
http://www.scenetime.com    -   SceneTime [ We been having it ] !!!


How come you press harder on a remote control when you know the battery is dead? so you better seed to get speed ;)

        Seed back for speed


...................................NFO:.................................................General
Complete name                    : n-aballer.720p.mkv
Format                           : Matroska
File size                        : 3.28 GiB
Duration                         : 1h 15mn
Overall bit rate                 : 6 203 Kbps
Encoded date                     : UTC 2011-06-20 10:26:14
Writing application              : mkvmerge v4.4.0 ('Die Wiederkehr') built on Oct 31 2010 21:52:48
Writing library                  : libebml v1.0.0 + libmatroska v1.0.0

Video
ID                               : 1
Format                           : AVC
Format/Info                      : Advanced Video Codec
Format profile                   : High@L4.1
Format settings, CABAC           : Yes
Format settings, ReFrames        : 5 frames
Muxing mode                      : Container profile=Unknown@4.1
Codec ID                         : V_MPEG4/ISO/AVC
Duration                         : 1h 15mn
Bit rate                         : 4 570 Kbps
Nominal bit rate                 : 4 696 Kbps
Width                            : 1 280 pixels
Height                           : 544 pixels
Display aspect ratio             : 2.35:1
Frame rate                       : 25.000 fps
Resolution                       : 24 bits
Colorimetry                      : 4:2:0
Scan type                        : Progressive
Bits/(Pixel*Frame)               : 0.263
Stream size                      : 2.41 GiB (74%)
Writing library                  : x264 core 115 r2008 4c552d8
Encoding settings                : cabac=1 / ref=5 / deblock=1:0:0 / analyse=0x3:0x133 / me=umh / subme=7 / psy=1 / psy_rd=1.00:0.00 / mixed_ref=1 / me_range=16 / chroma_me=1 / trellis=1 / 8x8dct=1 / cqm=0 / deadzone=21,11 / fast_pskip=0 / chroma_qp_offset=-2 / threads=9 / sliced_threads=0 / nr=0 / decimate=1 / interlaced=0 / bluray_compat=0 / constrained_intra=0 / bframes=3 / b_pyramid=2 / b_adapt=1 / b_bias=0 / direct=1 / weightb=1 / open_gop=0 / weightp=2 / keyint=250 / keyint_min=25 / scenecut=40 / intra_refresh=0 / rc_lookahead=40 / rc=2pass / mbtree=1 / bitrate=4696 / ratetol=1.0 / qcomp=0.60 / qpmin=0 / qpmax=69 / qpstep=4 / cplxblur=20.0 / qblur=0.5 / ip_ratio=1.40 / aq=1:1.00
Language                         : Norwegian

Audio
ID                               : 2
Format                           : DTS
Format/Info                      : Digital Theater Systems
Codec ID                         : A_DTS
Duration                         : 1h 15mn
Bit rate mode                    : Constant
Bit rate                         : 1 510 Kbps
Channel(s)                       : 6 channels
Channel positions                : Front: L C R, Surround: L R, LFE
Sampling rate                    : 48.0 KHz
Resolution                       : 24 bits
Stream size                      : 817 MiB (24%)
Language                         : Norwegian

Text
ID                               : 3
Format                           : UTF-8
Codec ID                         : S_TEXT/UTF8
Codec ID/Info                    : UTF-8 Plain Text